<svg width="24" height="24" viewBox="0 0 24 24" fill="none" xmlns="http://www.w3.org/2000/svg">
<g clip-path="url(#clip0_5340_3515)">
<path d="M14.58 10.5496C12.93 11.1596 11.12 11.1596 9.47005 10.5496L2.06005 7.78957C1.89005 7.72957 1.72005 7.64957 1.55005 7.55957V18.9896C1.55005 19.7696 1.79005 20.5296 2.23005 21.1596C2.67005 21.7996 3.30005 22.2796 4.03005 22.5496C9.17005 24.4696 14.83 24.4696 19.96 22.5496C21.45 21.9996 22.4401 20.5696 22.4401 18.9796V7.55957C22.2901 7.63957 22.1101 7.70957 21.93 7.78957L14.57 10.5496H14.58Z" fill="currentColor"/>
<path d="M22.52 0H1.53004C0.850039 0 0.290039 0.55 0.290039 1.24V2.61C0.290039 4.15 1.25004 5.53 2.69004 6.08L10.08 8.84C11.32 9.3 12.68 9.3 13.92 8.84L21.3 6.08C22.74 5.54 23.7 4.16 23.7 2.62V1.24C23.73 0.59 23.23 0.03 22.57 0C22.55 0 22.53 0 22.51 0H22.52ZM12.02 6.63C10.89 6.63 9.97004 5.71 9.97004 4.58C9.97004 3.45 10.89 2.53 12.02 2.53C13.15 2.53 14.07 3.45 14.07 4.58C14.07 5.71 13.17 6.63 12.04 6.63C12.04 6.63 12.03 6.63 12.02 6.63Z" fill="currentColor"/>
</g>
<defs>
<clipPath id="clip0_5340_3515">
</clipPath>
</defs>
</svg>
