<svg width="24" height="24" viewBox="0 0 24 24" fill="none" xmlns="http://www.w3.org/2000/svg">
<path d="M21.2393 5.87023L19.3223 6.44043L20.1491 9.22008L22.0661 8.64988L21.2393 5.87023Z" fill="currentColor"/>
<path d="M4 10.8001L4.3 11.7001H4.4C5.4 12.1001 6.5 12.1001 7.5 11.7001C8.4 11.3001 9.5 11.3001 10.4 11.7001C11.4 12.1001 12.5 12.1001 13.5 11.7001C14.4 11.3001 15.5 11.3001 16.4 11.7001C16.8 11.8001 17.2 11.9001 17.5 12.0001C18.4 11.5001 19.6 10.4001 19.4 9.40013L18.6 6.60013C18.1 5.40013 15.7 5.40013 14.8 5.60013H14.7L15.4 8.10013L15 8.40013L14.3 5.90013L13.1 6.30013L13.8 8.80013L13.2 9.00013L12.5 6.50013L11.3 6.90013L12 9.20013L11.4 9.40013L10.7 6.90013L9.5 7.30013L10.2 9.80013L9.7 10.0001L8.9 7.50013L7.7 7.80013L8.4 10.3001L7.8 10.5001L7.2 8.00013L5.3 8.50013C4.3 8.80013 3.8 9.70013 4 10.7001C4 10.7001 4 10.7001 4 10.8001Z" fill="currentColor"/>
<path d="M1.4 14.8998C2.4 14.4998 3.5 14.4998 4.5 14.8998C5.4 15.2998 6.5 15.2998 7.4 14.8998C8.4 14.4998 9.5 14.4998 10.5 14.8998C11.4 15.2998 12.5 15.2998 13.4 14.8998C14.4 14.4998 15.5 14.4998 16.5 14.8998C17.4 15.2998 18.5 15.2998 19.4 14.8998C20.4 14.4998 21.5 14.4998 22.5 14.8998C22.9 15.0998 23.4 15.1998 23.8 15.1998V13.3998C23.3 13.3998 22.8 13.2998 22.4 13.0998C21.5 12.6998 20.4 12.6998 19.5 13.0998C18.5 13.4998 17.4 13.4998 16.4 13.0998C15.5 12.6998 14.4 12.6998 13.5 13.0998C12.5 13.4998 11.4 13.4998 10.4 13.0998C9.5 12.6998 8.4 12.6998 7.5 13.0998C6.5 13.4998 5.4 13.4998 4.4 13.0998C3.9 12.8998 3.4 12.7998 2.9 12.7998C2.4 12.7998 1.9 12.8998 1.4 13.0998C0.9 13.2998 0.4 13.3998 0 13.3998V15.2998V15.3998C0.2 15.1998 0.7 15.0998 1.4 14.8998Z" fill="currentColor"/>
<path d="M22.6 16.2004C21.7 15.8004 20.6 15.8004 19.7 16.2004C18.7 16.6004 17.6 16.6004 16.6 16.2004C15.7 15.8004 14.6 15.8004 13.7 16.2004C12.7 16.6004 11.6 16.6004 10.6 16.2004C9.69995 15.8004 8.59995 15.8004 7.69995 16.2004C6.69995 16.6004 5.59995 16.6004 4.59995 16.2004C4.09995 16.0004 3.59995 15.9004 3.09995 15.9004C2.59995 15.9004 2.09995 16.0004 1.59995 16.2004C1.09995 16.4004 0.599951 16.5004 0.199951 16.5004V18.4004V18.5004C0.399951 18.4004 0.899951 18.3004 1.59995 18.1004C2.59995 17.7004 3.69995 17.7004 4.69995 18.1004C5.59995 18.5004 6.69995 18.5004 7.59995 18.1004C8.59995 17.7004 9.69995 17.7004 10.7 18.1004C11.6 18.5004 12.7 18.5004 13.6 18.1004C14.6 17.7004 15.7 17.7004 16.7 18.1004C17.6 18.5004 18.7 18.5004 19.6 18.1004C20.6 17.7004 21.7 17.7004 22.7 18.1004C23.1 18.3004 23.6 18.4004 24 18.4004V16.6004C23.5 16.5004 23 16.4004 22.6 16.2004Z" fill="currentColor"/>
</svg>
