<svg width="24" height="24" viewBox="0 0 24 24" fill="none" xmlns="http://www.w3.org/2000/svg">
<path d="M22.58 2.61035C22.51 2.61035 22.45 2.61035 22.38 2.61035C22.31 2.61035 22.28 2.61035 22.23 2.61035H22.2C22.09 2.61035 21.99 2.61035 21.88 2.62035C19.78 2.77035 18 4.20035 17.38 6.21035C17.28 6.63035 17.17 7.73035 17.17 7.73035L15.97 10.3804C15.95 10.4304 15.94 10.4804 15.94 10.5404C15.94 10.7604 16.12 10.9404 16.34 10.9404H17.17V12.3504C17.17 13.4504 18.06 14.3304 19.15 14.3404H19.94V15.7304C18.82 16.2904 17.79 17.0204 16.89 17.8904C15.79 18.9404 14.91 20.2004 14.29 21.5804H23.99V2.92035C23.53 2.75035 23.06 2.64035 22.57 2.61035H22.58ZM18.3 8.81035C18.02 8.81035 17.8 8.59035 17.8 8.31035C17.8 8.03035 18.02 7.81035 18.3 7.81035C18.58 7.81035 18.8 8.03035 18.8 8.31035C18.8 8.59035 18.58 8.81035 18.3 8.81035Z" fill="currentColor"/>
<path d="M14.5101 18.16C14.2901 18.16 14.1101 17.98 14.1101 17.76C14.1101 17.54 14.2901 17.36 14.5101 17.36C14.7301 17.36 14.9101 17.54 14.9101 17.76C14.9101 17.98 14.7301 18.16 14.5101 18.16ZM14.5101 16.92C14.2901 16.92 14.1101 16.74 14.1101 16.52C14.1101 16.3 14.2901 16.12 14.5101 16.12C14.7301 16.12 14.9101 16.3 14.9101 16.52C14.9101 16.74 14.7301 16.92 14.5101 16.92ZM14.5101 15.68C14.2901 15.68 14.1101 15.5 14.1101 15.28C14.1101 15.06 14.2901 14.88 14.5101 14.88C14.7301 14.88 14.9101 15.06 14.9101 15.28C14.9101 15.5 14.7301 15.68 14.5101 15.68ZM14.5101 14.44C14.2901 14.44 14.1101 14.26 14.1101 14.04C14.1101 13.82 14.2901 13.64 14.5101 13.64C14.7301 13.64 14.9101 13.82 14.9101 14.04C14.9101 14.26 14.7301 14.44 14.5101 14.44ZM14.5101 13.19C14.2901 13.19 14.1101 13.01 14.1101 12.79C14.1101 12.57 14.2901 12.39 14.5101 12.39C14.7301 12.39 14.9101 12.57 14.9101 12.79C14.9101 13.01 14.7301 13.19 14.5101 13.19ZM14.5101 11.95C14.2901 11.95 14.1101 11.77 14.1101 11.55C14.1101 11.33 14.2901 11.15 14.5101 11.15C14.7301 11.15 14.9101 11.33 14.9101 11.55C14.9101 11.77 14.7301 11.95 14.5101 11.95ZM14.5101 10.7C14.2901 10.7 14.1101 10.52 14.1101 10.3C14.1101 10.08 14.2901 9.89996 14.5101 9.89996C14.7301 9.89996 14.9101 10.08 14.9101 10.3C14.9101 10.52 14.7301 10.7 14.5101 10.7ZM14.5101 9.45996C14.2901 9.45996 14.1101 9.27996 14.1101 9.05996C14.1101 8.83996 14.2901 8.65996 14.5101 8.65996C14.7301 8.65996 14.9101 8.83996 14.9101 9.05996C14.9101 9.27996 14.7301 9.45996 14.5101 9.45996ZM14.5101 8.21996C14.2901 8.21996 14.1101 8.03996 14.1101 7.81996C14.1101 7.59996 14.2901 7.41996 14.5101 7.41996C14.7301 7.41996 14.9101 7.59996 14.9101 7.81996C14.9101 8.03996 14.7301 8.21996 14.5101 8.21996ZM14.5101 6.97996C14.2901 6.97996 14.1101 6.79996 14.1101 6.57996C14.1101 6.35996 14.2901 6.17996 14.5101 6.17996C14.7301 6.17996 14.9101 6.35996 14.9101 6.57996C14.9101 6.79996 14.7301 6.97996 14.5101 6.97996ZM14.5101 5.73996C14.2901 5.73996 14.1101 5.55996 14.1101 5.33996C14.1101 5.11996 14.2901 4.93996 14.5101 4.93996C14.7301 4.93996 14.9101 5.11996 14.9101 5.33996C14.9101 5.55996 14.7301 5.73996 14.5101 5.73996ZM14.5101 4.49996C14.2901 4.49996 14.1101 4.31996 14.1101 4.09996C14.1101 3.87996 14.2901 3.69996 14.5101 3.69996C14.7301 3.69996 14.9101 3.87996 14.9101 4.09996C14.9101 4.31996 14.7301 4.49996 14.5101 4.49996ZM14.5101 3.25996C14.2901 3.25996 14.1101 3.07996 14.1101 2.85996C14.1101 2.63996 14.2901 2.45996 14.5101 2.45996C14.7301 2.45996 14.9101 2.63996 14.9101 2.85996C14.9101 3.07996 14.7301 3.25996 14.5101 3.25996Z" fill="currentColor"/>
<path d="M12.76 15.9101L13.29 15.3801L7.86 9.95012C7.94 9.85012 8.02 9.74012 8.08 9.63012L12.6 11.7001L12.91 11.0201L8.4 8.95012C8.47 8.75012 8.51 8.54012 8.54 8.33012H12.67V7.58012H8.55C8.53 7.43012 8.51 7.29012 8.47 7.15012L12.65 5.50012L12.38 4.81012L8.2 6.46012C8.12 6.32012 8.03 6.18012 7.93 6.05012L10.69 3.35012L10.17 2.81012L7.42 5.50012C6.94 5.09012 6.35 4.84012 5.72 4.77012V2.62012H4.98V4.77012C4.39 4.84012 3.83 5.07012 3.36 5.44012L1.83 3.92012L1.3 4.44012L2.83 5.97012C2.46 6.44012 2.23 6.99012 2.17 7.58012H0V8.33012H2.17C2.24 8.92012 2.48 9.49012 2.85 9.95012L1.29 11.4701L1.81 12.0001L3.38 10.4701C3.84 10.8301 4.39 11.0501 4.96 11.1201V14.6201H5.71V11.1201C5.89 11.1001 6.07 11.0601 6.25 11.0101L8.44 16.1301L9.13 15.8401L6.94 10.7201C7.07 10.6401 7.2 10.5601 7.33 10.4601L12.76 15.8901V15.9101ZM5.35 10.4101C3.99 10.4101 2.89 9.31012 2.89 7.95012C2.89 6.59012 3.99 5.49012 5.35 5.49012C6.71 5.49012 7.81 6.59012 7.81 7.95012C7.81 9.31012 6.71 10.4101 5.35 10.4201" fill="currentColor"/>
</svg>
