<svg width="24" height="24" viewBox="0 0 24 24" fill="none" xmlns="http://www.w3.org/2000/svg">
<path d="M17.54 11.6503H20.47C20.74 11.6503 20.98 11.8003 21.1 12.0403L23.92 17.6903C24.09 18.0403 23.95 18.4603 23.6 18.6403C23.5 18.6903 23.39 18.7103 23.28 18.7103H0.71C0.32 18.7103 0 18.3903 0 18.0003C0 17.8903 0.03 17.7803 0.07 17.6803L2.9 12.0303C3.02 11.7903 3.26 11.6403 3.53 11.6403H6.19C6.26 12.5303 6.54 13.3803 7.01 14.1403C7.61 15.1403 8.91 15.4703 9.91 14.8703C10.18 14.7103 10.41 14.4903 10.59 14.2203C11.24 15.1903 12.55 15.4603 13.53 14.8103C13.77 14.6503 13.97 14.4503 14.12 14.2203C14.76 15.2003 16.07 15.4803 17.05 14.8403C18.01 14.2103 18.3 12.9403 17.7 11.9603C17.64 11.8603 17.58 11.7503 17.54 11.6403V11.6503ZM12.96 12.7003C13.16 13.0403 13.05 13.4703 12.71 13.6703C12.38 13.8703 11.95 13.7603 11.75 13.4303C10.91 12.1403 10.91 10.4703 11.75 9.17031C12.32 8.32031 12.32 7.22031 11.75 6.37031C11.55 6.04031 11.66 5.60031 11.99 5.40031C12.32 5.20031 12.76 5.31031 12.96 5.64031C13.8 6.93031 13.8 8.60031 12.96 9.90031C12.39 10.7503 12.39 11.8503 12.96 12.7003ZM9.43 12.7003C9.63 13.0403 9.52 13.4703 9.18 13.6703C8.85 13.8703 8.42 13.7603 8.22 13.4303C7.38 12.1403 7.38 10.4703 8.22 9.17031C8.79 8.32031 8.79 7.22031 8.22 6.37031C8.02 6.03031 8.13 5.60031 8.47 5.40031C8.8 5.20031 9.23 5.31031 9.43 5.64031C10.27 6.93031 10.27 8.60031 9.43 9.90031C8.86 10.7503 8.86 11.8503 9.43 12.7003ZM16.49 12.7003C16.7 13.0303 16.61 13.4603 16.28 13.6803C15.95 13.9003 15.52 13.8003 15.3 13.4703C15.3 13.4603 15.28 13.4403 15.27 13.4303C14.43 12.1403 14.43 10.4703 15.27 9.17031C15.84 8.32031 15.84 7.22031 15.27 6.37031C15.06 6.04031 15.15 5.61031 15.48 5.39031C15.81 5.18031 16.24 5.27031 16.46 5.60031C16.46 5.61031 16.48 5.63031 16.49 5.64031C17.33 6.93031 17.33 8.60031 16.49 9.90031C15.92 10.7503 15.92 11.8503 16.49 12.7003Z" fill="currentColor"/>
</svg>
